#!OML:ASF H:\Punching\Project 1\Capture day 1\Session 1\female.ASF
:FULLY-SPECIFIED
:DEGREES
1810
root -1.06985 16.004 3.08271 11.5066 -11.1465 5.952
lowerback 0.807181 -0.726275 -0.265676
upperback -4.83931 -1.05256 -1.24551
thorax -5.47437 -0.547694 -1.08236
lowerneck -13.0362 2.71694 6.40943
upperneck 30.2403 5.90113 -11.8596
head 12.7705 1.8401 -4.86283
rclavicle 2.00027e-014 -1.19271e-015
rhumerus -26.6408 1.70295 -75.8752
rradius 37.4844
rwrist -2.89569
rhand -14.657 -8.73025
rfingers 7.12502
rthumb 11.4956 -38.395
lclavicle 2.00027e-014 -1.19271e-015
lhumerus -59.3977 29.0521 56.5099
lradius 27.4246
lwrist -4.45594
lhand -14.5051 29.0787
lfingers 7.12502
lthumb 11.642 58.7352
rfemur -21.5066 9.05125 11.3275
rtibia 28.6962
rfoot -16.8782 -15.6887
rtoes -0.499948
lfemur -22.7353 -1.59694 -15.7199
ltibia 27.6052
lfoot -9.69286 18.1959
ltoes -3.25336
1811
root -1.08711 16.0008 3.08672 11.4821 -10.9544 5.96113
lowerback 0.681625 -0.732121 -0.185671
upperback -4.86701 -1.05683 -1.25094
thorax -5.43335 -0.553661 -1.13401
lowerneck -12.9702 2.58457 6.2893
upperneck 30.1478 5.71104 -11.7935
head 12.6877 1.75339 -4.83705
rclavicle -1.04362e-014 -2.34566e-014
rhumerus -26.9353 1.38966 -75.5079
rradius 37.1488
rwrist -2.73237
rhand -14.7377 -8.69969
rfingers 7.12502
rthumb 11.4178 -38.3688
lclavicle -1.04362e-014 -2.34566e-014
lhumerus -59.2692 28.9387 56.9111
lradius 27.61
lwrist -4.18484
lhand -14.2903 29.0469
lfingers 7.12502
lthumb 11.8492 58.6916
rfemur -21.4469 9.08744 11.4142
rtibia 28.8109
rfoot -16.9331 -15.8921
rtoes -0.514801
lfemur -22.6455 -1.48619 -15.8923
ltibia 28.1124
lfoot -10.069 17.6474
ltoes -4.19471
1812
root -1.10313 15.9975 3.09113 11.4609 -10.761 5.96745
lowerback 0.554317 -0.744001 -0.112601
upperback -4.90151 -1.06947 -1.25065
thorax -5.39847 -0.563368 -1.17541
lowerneck -12.9094 2.45373 6.17788
upperneck 30.0683 5.52528 -11.738
head 12.6134 1.6678 -4.8171
rclavicle 8.02593e-015 1.98785e-014
rhumerus -27.2496 1.05553 -75.1325
rradius 36.7871
rwrist -2.51222
rhand -14.7761 -8.70868
rfingers 7.12502
rthumb 11.3807 -38.3798
lclavicle 8.02593e-015 1.98785e-014
lhumerus -59.1104 28.837 57.2721
lradius 27.7439
lwrist -4.08929
lhand -14.1028 28.9449
lfingers 7.12502
lthumb 12.0299 58.5791
rfemur -21.392 9.10561 11.499
rtibia 28.9328
rfoot -17.0065 -16.0752
rtoes -0.483852
lfemur -22.5293 -1.39184 -16.0604
ltibia 28.5601
lfoot -10.4321 17.1386
ltoes -5.10214
1813
root -1.11778 15.9937 3.0959 11.4393 -10.5718 5.97002
lowerback 0.433603 -0.757421 -0.0471888
upperback -4.93993 -1.08448 -1.24495
thorax -5.37133 -0.573797 -1.20673
lowerneck -12.8434 2.32323 6.06672
upperneck 29.9871 5.34159 -11.6875
head 12.5383 1.58259 -4.79866
rclavicle -1.1455e-014 -3.18055e-015
rhumerus -27.5671 0.689569 -74.7477
rradius 36.3928
rwrist -2.23281
rhand -14.7799 -8.7431
rfingers 7.12502
rthumb 11.377 -38.4145
lclavicle -1.1455e-014 -3.18055e-015
lhumerus -58.9159 28.7347 57.6142
lradius 27.8568
lwrist -4.10514
lhand -13.9294 28.8198
lfingers 7.12502
lthumb 12.1972 58.4442
rfemur -21.3406 9.10671 11.5834
rtibia 29.0615
rfoot -17.0914 -16.2397
rtoes -0.441817
lfemur -22.3766 -1.31936 -16.2223
ltibia 28.9408
lfoot -10.8019 16.6847
ltoes -5.88291
1814
root -1.13118 15.9896 3.10096 11.4176 -10.3837 5.96934
lowerback 0.315074 -0.775539 0.0111703
upperback -4.9808 -1.10601 -1.23429
thorax -5.34798 -0.58705 -1.22864
lowerneck -12.7756 2.19292 5.9555
upperneck 29.901 5.15833 -11.639
head 12.4617 1.49731 -4.78047
rclavicle 2.61402e-014 -1.27222e-014
rhumerus -27.8871 0.301723 -74.3593
rradius 35.9627
rwrist -1.92736
rhand -14.7764 -8.7944
rfingers 7.12502
rthumb 11.3804 -38.4656
lclavicle 2.61402e-014 -1.27222e-014
lhumerus -58.6815 28.6317 57.9388
lradius 27.9452
lwrist -4.19849
lhand -13.7865 28.6564
lfingers 7.12502
lthumb 12.335 58.2726
rfemur -21.2921 9.08992 11.6678
rtibia 29.1964
rfoot -17.1861 -16.39
rtoes -0.397252
lfemur -22.187 -1.26898 -16.3776
ltibia 29.246
lfoot -11.1566 16.2922
ltoes -6.58492
1815
root -1.1433 15.9851 3.10657 11.393 -10.1975 5.9684
lowerback 0.201705 -0.796582 0.0599654
upperback -5.02406 -1.13183 -1.22059
thorax -5.32999 -0.601962 -1.24181
lowerneck -12.6964 2.06045 5.83765
upperneck 29.7991 4.97046 -11.5838
head 12.376 1.41046 -4.75801
rclavicle -2.48481e-014 4.77083e-015
rhumerus -28.2079 -0.107899 -73.9667
rradius 35.4957
rwrist -1.6097
rhand -14.7693 -8.81005
rfingers 7.12502
rthumb 11.3872 -38.4809
lclavicle -2.48481e-014 4.77083e-015
lhumerus -58.4048 28.5095 58.2657
lradius 28.0261
lwrist -4.31921
lhand -13.6803 28.4681
lfingers 7.12502
lthumb 12.4373 58.0781
rfemur -21.242 9.06137 11.7468
rtibia 29.3369
rfoot -17.2957 -16.5244
rtoes -0.328109
lfemur -21.9527 -1.25483 -16.5274
ltibia 29.4675
lfoot -11.4932 15.9666
ltoes -7.17806
1816
root -1.15434 15.9803 3.11276 11.3652 -10.0136 5.96987
lowerback 0.092052 -0.820272 0.094414
upperback -5.06873 -1.16171 -1.20524
thorax -5.31543 -0.618232 -1.24506
lowerneck -12.6034 1.92482 5.71306
upperneck 29.6774 4.77575 -11.5204
head 12.2789 1.32135 -4.73072
rclavicle 1.6027e-014 -4.65156e-014
rhumerus -28.5263 -0.536139 -73.5767
rradius 34.9934
rwrist -1.28048
rhand -14.7895 -8.82202
rfingers 7.12502
rthumb 11.3678 -38.4939
lclavicle 1.6027e-014 -4.65156e-014
lhumerus -58.0829 28.36 58.6024
lradius 28.1014
lwrist -4.44714
lhand -13.6055 28.247
lfingers 7.12502
lthumb 12.5095 57.8526
rfemur -21.1907 9.02959 11.8176
rtibia 29.4827
rfoot -17.4163 -16.6517
rtoes -0.232912
lfemur -21.672 -1.28617 -16.6707
ltibia 29.596
lfoot -11.8004 15.7002
ltoes -7.66058
1817
root -1.16437 15.9751 3.1196 11.338 -9.82757 5.96728
lowerback -0.0169847 -0.848856 0.121709
upperback -5.11853 -1.19831 -1.18525
thorax -5.30653 -0.637456 -1.23921
lowerneck -12.4944 1.78464 5.57913
upperneck 29.5372 4.57207 -11.4456
head 12.1703 1.22908 -4.69728
rclavicle 2.02015e-014 -9.93923e-015
rhumerus -28.845 -0.985589 -73.1846
rradius 34.4481
rwrist -0.937346
rhand -14.8341 -8.90426
rfingers 7.12502
rthumb 11.3248 -38.5785
lclavicle 2.02015e-014 -9.93923e-015
lhumerus -57.7273 28.1729 58.9551
lradius 28.1832
lwrist -4.579
lhand -13.5541 27.9839
lfingers 7.12502
lthumb 12.559 57.5865
rfemur -21.1386 8.99207 11.888
rtibia 29.6336
rfoot -17.5487 -16.7722
rtoes -0.116898
lfemur -21.346 -1.37241 -16.7968
ltibia 29.6215
lfoot -12.0633 15.4828
ltoes -8.07093
1818
root -1.17356 15.9697 3.12713 11.3134 -9.63885 5.96234
lowerback -0.131106 -0.883976 0.137653
upperback -5.17165 -1.24388 -1.16062
thorax -5.29812 -0.660543 -1.22194
lowerneck -12.3723 1.6413 5.43989
upperneck 29.3769 4.36104 -11.3622
head 12.0508 1.13446 -4.65923
rclavicle -9.6659e-015 -1.98785e-015
rhumerus -29.1591 -1.45652 -72.7903
rradius 33.8627
rwrist -0.571937
rhand -14.8939 -9.04913
rfingers 7.12502
rthumb 11.2671 -38.7265
lclavicle -9.6659e-015 -1.98785e-015
lhumerus -57.3377 27.9534 59.3196
lradius 28.2633
lwrist -4.73639
lhand -13.5157 27.6523
lfingers 7.12502
lthumb 12.596 57.2526
rfemur -21.0893 8.95212 11.9565
rtibia 29.7891
rfoot -17.6795 -16.8934
rtoes -0.0153171
lfemur -20.9765 -1.52249 -16.904
ltibia 29.5347
lfoot -12.2753 15.3039
ltoes -8.41134
1819
root -1.18199 15.964 3.13534 11.2906 -9.44513 5.95233
lowerback -0.245494 -0.926758 0.144529
upperback -5.22975 -1.29983 -1.13049
thorax -5.29469 -0.688294 -1.19351
lowerneck -12.2379 1.49499 5.29687
upperneck 29.2009 4.1429 -11.27
head 11.9228 1.03764 -4.61698
rclavicle 7.92654e-015 -2.38542e-015
rhumerus -29.4671 -1.9615 -72.3901
rradius 33.2344
rwrist -0.168265
rhand -14.9662 -9.2328
rfingers 7.12502
rthumb 11.1974 -38.914
lclavicle 7.92654e-015 -2.38542e-015
lhumerus -56.9243 27.6936 59.6985
lradius 28.3502
lwrist -4.93953
lhand -13.4709 27.2424
lfingers 7.12502
lthumb 12.6393 56.84
rfemur -21.0388 8.91161 12.0279
rtibia 29.9482
rfoot -17.8101 -17.0201
rtoes 0.0689378
lfemur -20.5627 -1.74625 -16.9867
ltibia 29.3289
lfoot -12.4376 15.1517
ltoes -8.69358
1820
root -1.18962 15.9579 3.14431 11.2707 -9.24417 5.934
lowerback -0.364 -0.978408 0.146687
upperback -5.28984 -1.36756 -1.09458
thorax -5.29099 -0.721566 -1.15614
lowerneck -12.0978 1.34701 5.15253
upperneck 29.012 3.91883 -11.1681
head 11.789 0.939293 -4.57074
rclavicle 2.7718e-014 3.85642e-014
rhumerus -29.7697 -2.50311 -71.9813
rradius 32.5746
rwrist 0.279626
rhand -15.0396 -9.41395
rfingers 7.12502
rthumb 11.1265 -39.099
lclavicle 2.7718e-014 3.85642e-014
lhumerus -56.4823 27.3943 60.0948
lradius 28.4389
lwrist -5.21158
lhand -13.4041 26.7436
lfingers 7.12502
lthumb 12.7036 56.3372
rfemur -20.9875 8.86387 12.1076
rtibia 30.1107
rfoot -17.938 -17.1525
rtoes 0.13218
lfemur -20.1066 -2.04814 -17.0406
ltibia 28.9984
lfoot -12.551 15.0153
ltoes -8.92996
1821
root -1.19639 15.9514 3.15395 11.252 -9.03791 5.90625
lowerback -0.481425 -1.03909 0.141953
upperback -5.35363 -1.44724 -1.04956
thorax -5.29158 -0.76026 -1.10509
lowerneck -11.9523 1.19837 5.00374
upperneck 28.8164 3.692 -11.0575
head 11.6525 0.840237 -4.52027
rclavicle -2.21024e-014 -1.86858e-014
rhumerus -30.0663 -3.0864 -71.5537
rradius 31.892
rwrist 0.809521
rhand -15.08 -9.57323
rfingers 7.12502
rthumb 11.0876 -39.2603
lclavicle -2.21024e-014 -1.86858e-014
lhumerus -56.0218 27.057 60.5093
lradius 28.5303
lwrist -5.58183
lhand -13.2887 26.1411
lfingers 7.12502
lthumb 12.8149 55.7277
rfemur -20.9348 8.81731 12.1962
rtibia 30.2776
rfoot -18.0615 -17.2977
rtoes 0.164056
lfemur -19.6087 -2.42189 -17.0663
ltibia 28.5405
lfoot -12.6048 14.8799
ltoes -9.16008
1822
root -1.20219 15.9444 3.16437 11.2338 -8.82607 5.86834
lowerback -0.599347 -1.10724 0.134198
upperback -5.41971 -1.5367 -0.997099
thorax -5.29408 -0.803501 -1.04442
lowerneck -11.8073 1.04917 4.85216
upperneck 28.6222 3.46213 -10.9361
head 11.5177 0.740506 -4.46558
rclavicle 5.1361e-014 3.06128e-014
rhumerus -30.3601 -3.71987 -71.1016
rradius 31.1898
rwrist 1.41732
rhand -15.0822 -9.65921
rfingers 7.12502
rthumb 11.0855 -39.3464
lclavicle 5.1361e-014 3.06128e-014
lhumerus -55.5388 26.6745 60.9491
lradius 28.6282
lwrist -6.06143
lhand -13.092 25.4483
lfingers 7.12502
lthumb 13.0045 55.023
rfemur -20.8797 8.77033 12.2949
rtibia 30.4482
rfoot -18.1815 -17.4571
rtoes 0.169956
lfemur -19.0721 -2.85849 -17.0666
ltibia 27.9581
lfoot -12.5866 14.7333
ltoes -9.40371
1823
root -1.20669 15.9367 3.17579 11.215 -8.60986 5.82502
lowerback -0.722385 -1.18185 0.124118
upperback -5.48433 -1.63465 -0.940906
thorax -5.29196 -0.850741 -0.978594
lowerneck -11.6748 0.900148 4.70176
upperneck 28.4378 3.23015 -10.8048
head 11.3906 0.640385 -4.4082
rclavicle 1.8692e-014 9.54166e-015
rhumerus -30.6516 -4.4048 -70.6245
rradius 30.4793
rwrist 2.10482
rhand -15.0376 -9.66198
rfingers 7.12502
rthumb 11.1285 -39.3469
lclavicle 1.8692e-014 9.54166e-015
lhumerus -55.0378 26.2505 61.4068
lradius 28.7304
lwrist -6.67345
lhand -12.7871 24.6191
lfingers 7.12502
lthumb 13.2984 54.1748
rfemur -20.8199 8.71323 12.3969
rtibia 30.6214
rfoot -18.3068 -17.6158
rtoes 0.16827
lfemur -18.4995 -3.34405 -17.0533
ltibia 27.2591
lfoot -12.4757 14.5632
ltoes -9.67693
